{
  "version": "1.1.0",
  "modules": [
    {
      "id": 0,
      "plugin": "Core",
      "version": "1.0.0",
      "model": "AudioInterface",
      "params": [],
      "leftModuleId": 18,
      "data": {
        "audio": {
          "driver": 4,
          "deviceName": "system",
          "offset": 0,
          "maxChannels": 8,
          "sampleRate": 44100,
          "blockSize": 256
        }
      },
      "pos": [
        82,
        1
      ]
    },
    {
      "id": 1,
      "plugin": "Core",
      "version": "1.0.0",
      "model": "MIDICCToCVInterface",
      "params": [],
      "rightModuleId": 11,
      "data": {
        "ccs": [
          48,
          49,
          50,
          51,
          114,
          18,
          19,
          16,
          8,
          9,
          10,
          11,
          12,
          13,
          14,
          15
        ],
        "values": [
          0,
          0,
          0,
          0,
          0,
          0,
          0,
          0,
          0,
          0,
          0,
          0,
          0,
          0,
          0,
          0,
          0,
          0,
          0,
          0,
          0,
          0,
          0,
          0,
          0,
          0,
          0,
          0,
          0,
          0,
          0,
          0,
          0,
          0,
          0,
          0,
          0,
          0,
          0,
          0,
          0,
          0,
          0,
          0,
          0,
          0,
          0,
          0,
          0,
          0,
          0,
          0,
          0,
          0,
          0,
          0,
          0,
          0,
          0,
          0,
          0,
          0,
          0,
          0,
          0,
          0,
          0,
          0,
          0,
          0,
          0,
          0,
          0,
          0,
          0,
          0,
          0,
          0,
          0,
          0,
          0,
          0,
          0,
          0,
          0,
          0,
          0,
          0,
          0,
          0,
          0,
          0,
          0,
          0,
          0,
          0,
          0,
          0,
          0,
          0,
          0,
          0,
          0,
          0,
          0,
          0,
          0,
          0,
          0,
          0,
          0,
          0,
          0,
          0,
          0,
          0,
          0,
          0,
          0,
          0,
          0,
          0,
          0,
          0,
          0,
          0,
          0,
          0
        ],
        "midi": {
          "driver": 2,
          "deviceName": "Midi Through:Midi Through Port-0 14:0",
          "channel": -1
        }
      },
      "pos": [
        0,
        1
      ]
    },
    {
      "id": 2,
      "plugin": "Valley",
      "version": "1.0.1",
      "model": "Plateau",
      "params": [
        {
          "id": 0,
          "value": 1.0
        },
        {
          "id": 1,
          "value": 0.5
        },
        {
          "id": 2,
          "value": 0.0
        },
        {
          "id": 3,
          "value": 10.0
        },
        {
          "id": 4,
          "value": 10.0
        },
        {
          "id": 5,
          "value": 0.5
        },
        {
          "id": 6,
          "value": 10.0
        },
        {
          "id": 7,
          "value": 0.549950004
        },
        {
          "id": 8,
          "value": 10.0
        },
        {
          "id": 9,
          "value": 10.0
        },
        {
          "id": 10,
          "value": 0.0
        },
        {
          "id": 11,
          "value": 0.5
        },
        {
          "id": 12,
          "value": 0.5
        },
        {
          "id": 13,
          "value": 0.0
        },
        {
          "id": 14,
          "value": 0.0
        },
        {
          "id": 15,
          "value": 0.0
        },
        {
          "id": 16,
          "value": 0.0
        },
        {
          "id": 17,
          "value": 0.0
        },
        {
          "id": 18,
          "value": 0.0
        },
        {
          "id": 19,
          "value": 0.0
        },
        {
          "id": 20,
          "value": 0.0
        },
        {
          "id": 21,
          "value": 0.0
        },
        {
          "id": 22,
          "value": 0.0
        },
        {
          "id": 23,
          "value": 0.0
        },
        {
          "id": 24,
          "value": 0.0
        },
        {
          "id": 25,
          "value": 0.0
        },
        {
          "id": 26,
          "value": 0.0
        },
        {
          "id": 27,
          "value": 0.0
        },
        {
          "id": 28,
          "value": 0.0
        },
        {
          "id": 29,
          "value": 0.0
        },
        {
          "id": 30,
          "value": 0.0
        }
      ],
      "rightModuleId": 3,
      "data": {
        "frozen": false,
        "freezeToggle": false,
        "panelStyle": 0,
        "tuned": 0,
        "diffuseInput": 0,
        "preDelayCVSens": 0,
        "inputSensitivity": 0,
        "outputSaturation": 0
      },
      "pos": [
        70,
        0
      ]
    },
    {
      "id": 3,
      "plugin": "AS",
      "version": "1.0.1",
      "model": "StereoVUmeter",
      "params": [],
      "leftModuleId": 2,
      "rightModuleId": 22,
      "pos": [
        82,
        0
      ]
    },
    {
      "id": 4,
      "plugin": "Fundamental",
      "version": "1.0.1",
      "model": "ADSR",
      "params": [
        {
          "id": 0,
          "value": 0.00300000003
        },
        {
          "id": 1,
          "value": 0.0
        },
        {
          "id": 2,
          "value": 0.976000011
        },
        {
          "id": 3,
          "value": 0.00300000003
        }
      ],
      "leftModuleId": 19,
      "rightModuleId": 7,
      "pos": [
        8,
        0
      ]
    },
    {
      "id": 5,
      "plugin": "Bidoo",
      "version": "1.0.0",
      "model": "pErCO",
      "params": [
        {
          "id": 0,
          "value": 0.495999843
        },
        {
          "id": 1,
          "value": 0.549100101
        },
        {
          "id": 2,
          "value": 0.91900003
        }
      ],
      "leftModuleId": 7,
      "rightModuleId": 17,
      "pos": [
        19,
        0
      ]
    },
    {
      "id": 6,
      "plugin": "Fundamental",
      "version": "1.0.1",
      "model": "VCMixer",
      "params": [
        {
          "id": 0,
          "value": 0.396999985
        },
        {
          "id": 1,
          "value": 1.0
        },
        {
          "id": 2,
          "value": 1.0
        },
        {
          "id": 3,
          "value": 1.0
        },
        {
          "id": 4,
          "value": 1.0
        }
      ],
      "leftModuleId": 17,
      "rightModuleId": 81,
      "pos": [
        45,
        0
      ]
    },
    {
      "id": 7,
      "plugin": "Fundamental",
      "version": "1.0.1",
      "model": "VCA-1",
      "params": [
        {
          "id": 0,
          "value": 1.0
        },
        {
          "id": 1,
          "value": 0.0
        }
      ],
      "leftModuleId": 4,
      "rightModuleId": 5,
      "pos": [
        16,
        0
      ]
    },
    {
      "id": 8,
      "plugin": "Fundamental",
      "version": "1.0.1",
      "model": "ADSR",
      "params": [
        {
          "id": 0,
          "value": 0.0
        },
        {
          "id": 1,
          "value": 0.0
        },
        {
          "id": 2,
          "value": 0.94749999
        },
        {
          "id": 3,
          "value": 0.00449999981
        }
      ],
      "leftModuleId": 20,
      "rightModuleId": 9,
      "pos": [
        22,
        1
      ]
    },
    {
      "id": 9,
      "plugin": "Fundamental",
      "version": "1.0.1",
      "model": "VCA-1",
      "params": [
        {
          "id": 0,
          "value": 1.0
        },
        {
          "id": 1,
          "value": 0.0
        }
      ],
      "leftModuleId": 8,
      "rightModuleId": 10,
      "pos": [
        30,
        1
      ]
    },
    {
      "id": 10,
      "plugin": "Bidoo",
      "version": "1.0.0",
      "model": "pErCO",
      "params": [
        {
          "id": 0,
          "value": 0.509499848
        },
        {
          "id": 1,
          "value": 0.546399951
        },
        {
          "id": 2,
          "value": 1.0
        }
      ],
      "leftModuleId": 9,
      "rightModuleId": 16,
      "pos": [
        33,
        1
      ]
    },
    {
      "id": 11,
      "plugin": "21kHz",
      "version": "1.0.0",
      "model": "kHzD_Inf",
      "params": [
        {
          "id": 0,
          "value": 1.0
        },
        {
          "id": 1,
          "value": 3.0
        },
        {
          "id": 2,
          "value": 0.0
        },
        {
          "id": 3,
          "value": 0.0
        }
      ],
      "leftModuleId": 1,
      "rightModuleId": 20,
      "pos": [
        10,
        1
      ]
    },
    {
      "id": 13,
      "plugin": "Fundamental",
      "version": "1.0.1",
      "model": "ADSR",
      "params": [
        {
          "id": 0,
          "value": 0.00449999981
        },
        {
          "id": 1,
          "value": 0.0
        },
        {
          "id": 2,
          "value": 1.0
        },
        {
          "id": 3,
          "value": 0.0
        }
      ],
      "leftModuleId": 21,
      "rightModuleId": 14,
      "pos": [
        53,
        1
      ]
    },
    {
      "id": 14,
      "plugin": "Fundamental",
      "version": "1.0.1",
      "model": "VCA-1",
      "params": [
        {
          "id": 0,
          "value": 1.0
        },
        {
          "id": 1,
          "value": 0.0
        }
      ],
      "leftModuleId": 13,
      "rightModuleId": 15,
      "pos": [
        61,
        1
      ]
    },
    {
      "id": 15,
      "plugin": "Bidoo",
      "version": "1.0.0",
      "model": "pErCO",
      "params": [
        {
          "id": 0,
          "value": 0.506499946
        },
        {
          "id": 1,
          "value": 0.54279995
        },
        {
          "id": 2,
          "value": 1.0
        }
      ],
      "leftModuleId": 14,
      "rightModuleId": 18,
      "pos": [
        64,
        1
      ]
    },
    {
      "id": 16,
      "plugin": "21kHz",
      "version": "1.0.0",
      "model": "kHzD_Inf",
      "params": [
        {
          "id": 0,
          "value": -1.0
        },
        {
          "id": 1,
          "value": 3.0
        },
        {
          "id": 2,
          "value": 0.0
        },
        {
          "id": 3,
          "value": 0.0
        }
      ],
      "leftModuleId": 10,
      "rightModuleId": 21,
      "pos": [
        41,
        1
      ]
    },
    {
      "id": 17,
      "plugin": "AudibleInstruments",
      "version": "1.0.0",
      "model": "Marbles",
      "params": [
        {
          "id": 0,
          "value": 0.0
        },
        {
          "id": 1,
          "value": 0.0
        },
        {
          "id": 2,
          "value": 0.743000031
        },
        {
          "id": 3,
          "value": -0.140999988
        },
        {
          "id": 4,
          "value": 0.672500134
        },
        {
          "id": 5,
          "value": 0.0
        },
        {
          "id": 6,
          "value": 0.0
        },
        {
          "id": 7,
          "value": 1.0
        },
        {
          "id": 8,
          "value": 0.358999997
        },
        {
          "id": 9,
          "value": 0.5
        },
        {
          "id": 10,
          "value": 0.0
        },
        {
          "id": 11,
          "value": 0.0
        },
        {
          "id": 12,
          "value": 0.0
        },
        {
          "id": 13,
          "value": 0.497499883
        },
        {
          "id": 14,
          "value": 0.79400003
        }
      ],
      "leftModuleId": 5,
      "rightModuleId": 6,
      "data": {
        "t_deja_vu": true,
        "x_deja_vu": true,
        "t_mode": 2,
        "x_mode": 0,
        "t_range": 1,
        "x_range": 2,
        "external": false,
        "x_scale": 2,
        "y_divider_index": 8,
        "x_clock_source_internal": 2
      },
      "pos": [
        27,
        0
      ]
    },
    {
      "id": 18,
      "plugin": "Bogaudio",
      "version": "1.0.17",
      "model": "Bogaudio-FMOp",
      "params": [
        {
          "id": 0,
          "value": -0.101999998
        },
        {
          "id": 1,
          "value": 0.0
        },
        {
          "id": 2,
          "value": 0.197999969
        },
        {
          "id": 3,
          "value": 0.316229999
        },
        {
          "id": 4,
          "value": 1.0
        },
        {
          "id": 5,
          "value": 0.805230141
        },
        {
          "id": 6,
          "value": 0.475500017
        },
        {
          "id": 7,
          "value": 0.207000002
        },
        {
          "id": 8,
          "value": 1.0
        },
        {
          "id": 9,
          "value": 0.0
        },
        {
          "id": 10,
          "value": 0.0
        },
        {
          "id": 11,
          "value": 0.0
        }
      ],
      "leftModuleId": 15,
      "rightModuleId": 0,
      "data": {
        "linearLevel": true
      },
      "pos": [
        72,
        1
      ]
    },
    {
      "id": 19,
      "plugin": "21kHz",
      "version": "1.0.0",
      "model": "kHzPalmLoop",
      "params": [
        {
          "id": 0,
          "value": 5.0
        },
        {
          "id": 1,
          "value": 0.0
        },
        {
          "id": 2,
          "value": 0.0
        },
        {
          "id": 3,
          "value": 0.0
        },
        {
          "id": 4,
          "value": 0.0
        }
      ],
      "rightModuleId": 4,
      "pos": [
        0,
        0
      ]
    },
    {
      "id": 20,
      "plugin": "21kHz",
      "version": "1.0.0",
      "model": "kHzPalmLoop",
      "params": [
        {
          "id": 0,
          "value": 5.0
        },
        {
          "id": 1,
          "value": 0.0
        },
        {
          "id": 2,
          "value": 0.0
        },
        {
          "id": 3,
          "value": 0.0
        },
        {
          "id": 4,
          "value": 0.0
        }
      ],
      "leftModuleId": 11,
      "rightModuleId": 8,
      "pos": [
        14,
        1
      ]
    },
    {
      "id": 21,
      "plugin": "21kHz",
      "version": "1.0.0",
      "model": "kHzPalmLoop",
      "params": [
        {
          "id": 0,
          "value": 5.0
        },
        {
          "id": 1,
          "value": 0.0
        },
        {
          "id": 2,
          "value": 0.0
        },
        {
          "id": 3,
          "value": 0.0
        },
        {
          "id": 4,
          "value": 0.0
        }
      ],
      "leftModuleId": 16,
      "rightModuleId": 13,
      "pos": [
        45,
        1
      ]
    },
    {
      "id": 22,
      "plugin": "AS",
      "version": "1.0.1",
      "model": "ReScale",
      "params": [
        {
          "id": 0,
          "value": 3.0
        }
      ],
      "leftModuleId": 3,
      "pos": [
        86,
        0
      ]
    },
    {
      "id": 81,
      "plugin": "Bogaudio",
      "version": "1.0.17",
      "model": "Bogaudio-Pressor",
      "params": [
        {
          "id": 0,
          "value": 0.800000012
        },
        {
          "id": 1,
          "value": 1.0
        },
        {
          "id": 2,
          "value": 0.316229999
        },
        {
          "id": 3,
          "value": 0.316229999
        },
        {
          "id": 4,
          "value": 0.0
        },
        {
          "id": 5,
          "value": -0.5
        },
        {
          "id": 6,
          "value": 0.0
        },
        {
          "id": 7,
          "value": 1.0
        },
        {
          "id": 8,
          "value": 1.0
        },
        {
          "id": 9,
          "value": 1.0
        }
      ],
      "leftModuleId": 6,
      "pos": [
        55,
        0
      ]
    }
  ],
  "cables": [
    {
      "id": 99,
      "outputModuleId": 3,
      "outputId": 0,
      "inputModuleId": 0,
      "inputId": 0,
      "color": "#0c8e15"
    },
    {
      "id": 100,
      "outputModuleId": 3,
      "outputId": 1,
      "inputModuleId": 0,
      "inputId": 1,
      "color": "#0986ad"
    },
    {
      "id": 101,
      "outputModuleId": 2,
      "outputId": 1,
      "inputModuleId": 3,
      "inputId": 1,
      "color": "#c91847"
    },
    {
      "id": 102,
      "outputModuleId": 2,
      "outputId": 0,
      "inputModuleId": 3,
      "inputId": 0,
      "color": "#0c8e15"
    },
    {
      "id": 103,
      "outputModuleId": 4,
      "outputId": 0,
      "inputModuleId": 7,
      "inputId": 0,
      "color": "#0c8e15"
    },
    {
      "id": 104,
      "outputModuleId": 7,
      "outputId": 0,
      "inputModuleId": 5,
      "inputId": 0,
      "color": "#0c8e15"
    },
    {
      "id": 105,
      "outputModuleId": 5,
      "outputId": 0,
      "inputModuleId": 6,
      "inputId": 1,
      "color": "#0986ad"
    },
    {
      "id": 106,
      "outputModuleId": 8,
      "outputId": 0,
      "inputModuleId": 9,
      "inputId": 0,
      "color": "#c9b70e"
    },
    {
      "id": 107,
      "outputModuleId": 9,
      "outputId": 0,
      "inputModuleId": 10,
      "inputId": 0,
      "color": "#0c8e15"
    },
    {
      "id": 108,
      "outputModuleId": 10,
      "outputId": 0,
      "inputModuleId": 6,
      "inputId": 2,
      "color": "#0986ad"
    },
    {
      "id": 109,
      "outputModuleId": 14,
      "outputId": 0,
      "inputModuleId": 15,
      "inputId": 0,
      "color": "#c9b70e"
    },
    {
      "id": 110,
      "outputModuleId": 15,
      "outputId": 0,
      "inputModuleId": 6,
      "inputId": 3,
      "color": "#0c8e15"
    },
    {
      "id": 111,
      "outputModuleId": 13,
      "outputId": 0,
      "inputModuleId": 14,
      "inputId": 0,
      "color": "#0986ad"
    },
    {
      "id": 112,
      "outputModuleId": 1,
      "outputId": 2,
      "inputModuleId": 4,
      "inputId": 0,
      "color": "#c91847"
    },
    {
      "id": 113,
      "outputModuleId": 1,
      "outputId": 3,
      "inputModuleId": 4,
      "inputId": 3,
      "color": "#0986ad"
    },
    {
      "id": 114,
      "outputModuleId": 1,
      "outputId": 2,
      "inputModuleId": 8,
      "inputId": 0,
      "color": "#c91847"
    },
    {
      "id": 115,
      "outputModuleId": 1,
      "outputId": 3,
      "inputModuleId": 8,
      "inputId": 3,
      "color": "#0986ad"
    },
    {
      "id": 116,
      "outputModuleId": 1,
      "outputId": 2,
      "inputModuleId": 13,
      "inputId": 0,
      "color": "#c91847"
    },
    {
      "id": 117,
      "outputModuleId": 1,
      "outputId": 3,
      "inputModuleId": 13,
      "inputId": 3,
      "color": "#0986ad"
    },
    {
      "id": 118,
      "outputModuleId": 1,
      "outputId": 0,
      "inputModuleId": 5,
      "inputId": 1,
      "color": "#c9b70e"
    },
    {
      "id": 119,
      "outputModuleId": 1,
      "outputId": 0,
      "inputModuleId": 10,
      "inputId": 1,
      "color": "#c91847"
    },
    {
      "id": 120,
      "outputModuleId": 1,
      "outputId": 0,
      "inputModuleId": 15,
      "inputId": 1,
      "color": "#0c8e15"
    },
    {
      "id": 121,
      "outputModuleId": 1,
      "outputId": 1,
      "inputModuleId": 5,
      "inputId": 2,
      "color": "#0986ad"
    },
    {
      "id": 122,
      "outputModuleId": 1,
      "outputId": 1,
      "inputModuleId": 10,
      "inputId": 2,
      "color": "#c9b70e"
    },
    {
      "id": 123,
      "outputModuleId": 1,
      "outputId": 1,
      "inputModuleId": 15,
      "inputId": 2,
      "color": "#c91847"
    },
    {
      "id": 124,
      "outputModuleId": 17,
      "outputId": 1,
      "inputModuleId": 13,
      "inputId": 4,
      "color": "#c91847"
    },
    {
      "id": 125,
      "outputModuleId": 17,
      "outputId": 1,
      "inputModuleId": 8,
      "inputId": 4,
      "color": "#c9b70e"
    },
    {
      "id": 126,
      "outputModuleId": 17,
      "outputId": 1,
      "inputModuleId": 4,
      "inputId": 4,
      "color": "#c91847"
    },
    {
      "id": 127,
      "outputModuleId": 22,
      "outputId": 0,
      "inputModuleId": 18,
      "inputId": 4,
      "color": "#0986ad"
    },
    {
      "id": 128,
      "outputModuleId": 17,
      "outputId": 1,
      "inputModuleId": 18,
      "inputId": 5,
      "color": "#c9b70e"
    },
    {
      "id": 129,
      "outputModuleId": 18,
      "outputId": 0,
      "inputModuleId": 6,
      "inputId": 4,
      "color": "#c91847"
    },
    {
      "id": 130,
      "outputModuleId": 19,
      "outputId": 0,
      "inputModuleId": 7,
      "inputId": 1,
      "color": "#c91847"
    },
    {
      "id": 131,
      "outputModuleId": 11,
      "outputId": 0,
      "inputModuleId": 20,
      "inputId": 1,
      "color": "#0986ad"
    },
    {
      "id": 132,
      "outputModuleId": 20,
      "outputId": 0,
      "inputModuleId": 9,
      "inputId": 1,
      "color": "#c9b70e"
    },
    {
      "id": 133,
      "outputModuleId": 21,
      "outputId": 0,
      "inputModuleId": 14,
      "inputId": 1,
      "color": "#c91847"
    },
    {
      "id": 134,
      "outputModuleId": 16,
      "outputId": 0,
      "inputModuleId": 21,
      "inputId": 1,
      "color": "#0c8e15"
    },
    {
      "id": 135,
      "outputModuleId": 17,
      "outputId": 1,
      "inputModuleId": 4,
      "inputId": 5,
      "color": "#c9b70e"
    },
    {
      "id": 136,
      "outputModuleId": 17,
      "outputId": 1,
      "inputModuleId": 8,
      "inputId": 5,
      "color": "#c91847"
    },
    {
      "id": 137,
      "outputModuleId": 17,
      "outputId": 1,
      "inputModuleId": 13,
      "inputId": 5,
      "color": "#0c8e15"
    },
    {
      "id": 138,
      "outputModuleId": 22,
      "outputId": 0,
      "inputModuleId": 16,
      "inputId": 2,
      "color": "#0986ad"
    },
    {
      "id": 139,
      "outputModuleId": 17,
      "outputId": 4,
      "inputModuleId": 22,
      "inputId": 0,
      "color": "#c9b70e"
    },
    {
      "id": 140,
      "outputModuleId": 22,
      "outputId": 0,
      "inputModuleId": 11,
      "inputId": 2,
      "color": "#c91847"
    },
    {
      "id": 141,
      "outputModuleId": 22,
      "outputId": 0,
      "inputModuleId": 19,
      "inputId": 1,
      "color": "#0c8e15"
    },
    {
      "id": 142,
      "outputModuleId": 17,
      "outputId": 3,
      "inputModuleId": 18,
      "inputId": 6,
      "color": "#c91847"
    },
    {
      "id": 143,
      "outputModuleId": 6,
      "outputId": 0,
      "inputModuleId": 81,
      "inputId": 0,
      "color": "#0986ad"
    },
    {
      "id": 144,
      "outputModuleId": 6,
      "outputId": 0,
      "inputModuleId": 81,
      "inputId": 4,
      "color": "#c9b70e"
    },
    {
      "id": 145,
      "outputModuleId": 81,
      "outputId": 1,
      "inputModuleId": 2,
      "inputId": 0,
      "color": "#0c8e15"
    },
    {
      "id": 146,
      "outputModuleId": 81,
      "outputId": 2,
      "inputModuleId": 2,
      "inputId": 1,
      "color": "#c91847"
    }
  ]
}